ply
format ascii 1.0
comment VCGLIB generated
element vertex 26
property float x
property float y
property float z
property float nx
property float ny
property float nz
property float texture_u
property float texture_v
element face 12
property list uchar int vertex_indices
end_header
100 -1 -100 0 0 -1 1.000000 -1.000000
-100 1 -100 0 0 -1 -1.000000 1.000000
100 1 -100 0 0 -1 1.000000 1.000000
-100 1 100 0 0 1 -1.000000 1.000000
99.9999 -1.000001 100 0 0 1 0.999999 -1.000001
100 0.999999 100 0 0 1 1.000000 0.999999
100 0.999999 100 1 0 0 1.000000 0.999999
100 -1 -100 1 0 0 1.000000 -1.000000
100 1 -100 1 0 0 1.000000 1.000000
99.9999 -1.000001 100 -2.384187e-05 -1 -2.384186e-05 0.999999 -1.000001
-100 -1 -100 -2.384186e-05 -1 -2.384187e-05 -1.000000 -1.000000
100 -1 -100 0 -1 -4.768372e-05 1.000000 -1.000000
-100 -1 -100 -1 0 0 -1.000000 -1.000000
-100 1 100 -1 0 0 -1.000000 1.000000
-100 1 -100 -1 0 0 -1.000000 1.000000
100 1 -100 2.533197e-05 1 2.533197e-05 1.000000 1.000000
-100 1 100 2.533197e-05 1 2.533197e-05 -1.000000 1.000000
100 0.999999 100 5.066395e-05 1 5.066395e-05 1.000000 0.999999
-100 -1 -100 0 0 -1 -1.000000 -1.000000
-100 -1 100 0 0 1 -1.000000 -1.000000
100 0.999999 100 1 -5.066394e-09 5.066393e-07 1.000000 0.999999
99.9999 -1.000001 100 1 -5.066394e-09 5.066393e-07 0.999999 -1.000001
100 -1 -100 1 -5.066394e-09 5.066393e-07 1.000000 -1.000000
-100 -1 100 -4.768374e-05 -1 0 -1.000000 -1.000000
-100 -1 100 -1 0 0 -1.000000 -1.000000
-100 1 -100 0 1 0 -1.000000 1.000000
3 0 1 2 
3 3 4 5 
3 6 7 8 
3 9 10 11 
3 12 13 14 
3 15 16 17 
3 0 18 1 
3 3 19 4 
3 20 21 22 
3 9 23 10 
3 12 24 13 
3 15 25 16 
