ply
format ascii 1.0
comment VCGLIB generated
comment TextureFile ../textures/SpaceInteriors_Texture.png
element vertex 168
property float x
property float y
property float z
property float nx
property float ny
property float nz
property float texture_u
property float texture_v
element face 104
property list uchar int vertex_indices
end_header
-60 0 59.7453 0.5424358 -0.256086 0.8001146 0.200168 0.061667
-3e-05 0 6e-05 0.8161702 -0.3962213 0.4205651 0.200168 0.061667
-60 30 59.7453 0.4198432 0.3961252 0.8165883 0.300052 0.061667
-3e-05 30 6e-05 0.7988466 0.2561901 0.5442525 0.300052 0.061667
-71.12189 30 59.7453 -0.574469 0.8084824 -0.1278339 0.300052 0.061667
3e-05 30 -11.12187 0.1687802 0.7672239 -0.6187736 0.300052 0.061667
-71.12189 0 59.7453 -0.6168602 -0.7703296 0.16148 0.200168 0.061667
3e-05 0 -11.12187 -0.1226708 -0.8076082 -0.5768196 0.200168 0.061667
-58.0929 2.69706 57.8382 0.755648 0.534533 0.3785109 0.265187 0.061667
-1.90713 2.69703 1.90716 0.1880342 0.2670912 0.9451483 0.265187 0.061667
-1.90713 27.30294 1.90716 0.3774916 -0.534437 0.7562256 0.265187 0.061667
-58.0929 27.30297 57.8382 0.9446555 -0.2673527 0.1901273 0.265187 0.061667
-65.8275 27.30294 50.0988 -0.5212768 -0.4292578 -0.7375692 0.265187 0.061667
-9.77151 27.30294 -5.95722 -0.9739888 0.1820145 -0.1349686 0.265187 0.061667
-9.77151 2.69703 -5.95722 -0.7308671 0.4311518 -0.5290948 0.265187 0.061667
-65.8275 2.69703 50.0988 -0.131086 -0.1811322 -0.9746833 0.265187 0.061667
-61.8318 2.69703 54.0945 0.9448945 0.2671814 0.1891785 0.299122 0.061667
-5.7759 2.69703 -1.96158 0.3779731 0.5345221 0.7559249 0.299122 0.061667
-5.7759 27.30294 -1.96158 0.1889882 -0.2672555 0.9449117 0.233038 0.061667
-61.8318 27.30294 54.0945 0.7559447 -0.5344454 0.3780418 0.265187 0.061667
-62.8911 27.30294 53.0352 -0.1889807 -0.2672598 -0.9449118 0.265187 0.061667
-6.83511 27.30294 -3.02082 -0.7559257 -0.5345234 -0.3779695 0.265187 0.061667
-6.83511 2.69703 -3.02082 -0.9449112 0.2672597 -0.1889844 0.233038 0.061667
-62.8911 2.69703 53.0352 -0.3779642 0.5345234 -0.7559285 0.299122 0.061667
-60.3324 5.76363 52.5948 0.8528011 0.3015114 0.4264051 0.201760 0.061667
-7.27536 5.76363 -0.46206 0.3779706 0.5345197 0.7559279 0.201760 0.061667
-7.27536 24.23637 -0.46206 0.1715063 -0.4850712 0.8574914 0.201760 0.061667
-60.3324 24.23637 52.5948 0.9449128 -0.2672589 0.1889775 0.201760 0.061667
-61.3917 24.23637 51.5358 -0.3779673 -0.5345202 -0.7559292 0.201760 0.061667
-8.33463 24.23637 -1.52133 -0.8528021 -0.3015097 -0.4264041 0.201760 0.061667
-8.33463 5.76363 -1.52133 -0.9449103 0.2672612 -0.1889866 0.201760 0.061667
-61.3917 5.76363 51.5358 -0.171506 0.485065 -0.857495 0.201760 0.061667
-9.61029 25.01211 2.89809 0.2886797 -0.4082541 0.8660212 0.356003 0.061667
-8.58384 25.01211 1.87161 0.7071168 -0.6666605 -0.2356898 0.356003 0.061667
-9.61029 26.46378 2.89809 -0.2357146 0.666673 0.7070967 0.356003 0.061667
-8.58384 26.46378 1.87161 0.8660296 0.4082426 0.2886708 0.356003 0.061667
-10.1229 26.46378 2.38545 -0.5000144 0.7071069 0.4999854 0.390868 0.061667
-9.09642 26.46378 1.359 0.5000162 0.7071064 -0.4999844 0.390868 0.061667
-10.1229 25.01211 2.38545 -0.5000135 -0.7071077 0.4999852 0.290983 0.061667
-9.09642 25.01211 1.359 0.5000149 -0.7071066 -0.4999852 0.290983 0.061667
-57.1752 25.01211 50.463 0.288691 -0.4082463 0.8660211 0.356003 0.061667
-56.1486 25.01211 49.4364 0.7071186 -0.6666591 -0.2356883 0.356003 0.061667
-57.1752 26.46378 50.463 -0.2356846 0.6666647 0.7071145 0.356003 0.061667
-56.1486 26.46378 49.4364 0.8660294 0.4082426 0.2886712 0.356003 0.061667
-57.6879 26.46378 49.9503 -0.4999861 0.7071069 0.5000137 0.390868 0.061667
-56.6613 26.46378 48.924 0.5000162 0.7071064 -0.4999844 0.390868 0.061667
-57.6879 25.01211 49.9503 -0.4999852 -0.7071077 0.5000135 0.290983 0.061667
-56.6613 25.01211 48.924 0.5000157 -0.7071067 -0.4999846 0.290983 0.061667
-9.61029 3.53619 2.89809 0.2886797 -0.4082541 0.8660212 0.356003 0.061667
-8.58384 3.53619 1.87161 0.7071168 -0.6666605 -0.2356898 0.356003 0.061667
-9.61029 4.98789 2.89809 -0.2357146 0.666673 0.7070967 0.356003 0.061667
-8.58384 4.98789 1.87161 0.8660296 0.4082426 0.2886708 0.356003 0.061667
-10.1229 4.98789 2.38545 -0.5000144 0.7071069 0.4999854 0.390868 0.061667
-9.09642 4.98789 1.359 0.5000135 0.7071077 -0.4999852 0.390868 0.061667
-10.1229 3.53619 2.38545 -0.5000135 -0.7071077 0.4999852 0.290983 0.061667
-9.09642 3.53619 1.359 0.5000144 -0.7071069 -0.4999854 0.290983 0.061667
-57.1752 3.53619 50.463 0.288691 -0.4082463 0.8660211 0.356003 0.061667
-56.1486 3.53619 49.4364 0.7071186 -0.6666591 -0.2356883 0.356003 0.061667
-57.1752 4.98789 50.463 -0.2356846 0.6666647 0.7071145 0.356003 0.061667
-56.1486 4.98789 49.4364 0.8660294 0.4082426 0.2886712 0.356003 0.061667
-57.6879 4.98789 49.9503 -0.4999861 0.7071069 0.5000137 0.390868 0.061667
-56.6613 4.98789 48.924 0.5000162 0.7071064 -0.4999844 0.390868 0.061667
-57.6879 3.53619 49.9503 -0.4999852 -0.7071077 0.5000135 0.290983 0.061667
-56.6613 3.53619 48.924 0.5000157 -0.7071067 -0.4999846 0.290983 0.061667
-3e-05 0 6e-05 0.8161702 -0.3962213 0.4205651 0.233148 0.061667
3e-05 0 -11.12187 -0.1226708 -0.8076082 -0.5768196 0.233148 0.061667
3e-05 30 -11.12187 0.1687802 0.7672239 -0.6187736 0.233148 0.061667
-3e-05 30 6e-05 0.7988466 0.2561901 0.5442525 0.233148 0.061667
-71.12189 0 59.7453 -0.6168602 -0.7703296 0.16148 0.233148 0.061667
-60 0 59.7453 0.5424358 -0.256086 0.8001146 0.233148 0.061667
-60 30 59.7453 0.4198432 0.3961252 0.8165883 0.233148 0.061667
-71.12189 30 59.7453 -0.574469 0.8084824 -0.1278339 0.233148 0.061667
-60 0 59.7453 0.5424358 -0.256086 0.8001146 0.265187 0.061667
-3e-05 0 6e-05 0.8161702 -0.3962213 0.4205651 0.265187 0.061667
-3e-05 30 6e-05 0.7988466 0.2561901 0.5442525 0.265187 0.061667
-60 30 59.7453 0.4198432 0.3961252 0.8165883 0.265187 0.061667
-71.12189 30 59.7453 -0.5744691 0.8084824 -0.1278339 0.265187 0.061667
3e-05 30 -11.12187 0.1687802 0.7672239 -0.6187736 0.265187 0.061667
3e-05 0 -11.12187 -0.1226708 -0.8076082 -0.5768196 0.265187 0.061667
-71.12189 0 59.7453 -0.6168602 -0.7703296 0.16148 0.265187 0.061667
-58.0929 2.69706 57.8382 0.755648 0.534533 0.3785109 0.299122 0.061667
-1.90713 2.69703 1.90716 0.1880342 0.2670912 0.9451483 0.299122 0.061667
-1.90713 2.69703 1.90716 0.1880342 0.2670912 0.9451483 0.233038 0.061667
-1.90713 27.30294 1.90716 0.3774916 -0.534437 0.7562256 0.233038 0.061667
-5.7759 2.69703 -1.96158 0.3779732 0.5345221 0.7559249 0.233038 0.061667
-5.7759 27.30294 -1.96158 0.1889882 -0.2672555 0.9449117 0.265187 0.061667
-58.0929 27.30297 57.8382 0.9446555 -0.2673527 0.1901273 0.233038 0.061667
-58.0929 2.69706 57.8382 0.755648 0.534533 0.3785109 0.233038 0.061667
-61.8318 2.69703 54.0945 0.9448945 0.2671814 0.1891785 0.233038 0.061667
-61.8318 27.30294 54.0945 0.7559447 -0.5344454 0.3780418 0.233038 0.061667
-9.77151 27.30294 -5.95722 -0.9739888 0.1820145 -0.1349686 0.233038 0.061667
-9.77151 2.69703 -5.95722 -0.7308671 0.4311518 -0.5290948 0.233038 0.061667
-6.83511 27.30294 -3.02082 -0.7559257 -0.5345234 -0.3779695 0.233038 0.061667
-9.77151 2.69703 -5.95722 -0.7308671 0.4311518 -0.5290948 0.299122 0.061667
-65.8275 2.69703 50.0988 -0.131086 -0.1811322 -0.9746833 0.299122 0.061667
-6.83511 2.69703 -3.02082 -0.9449112 0.2672597 -0.1889844 0.299122 0.061667
-65.8275 2.69703 50.0988 -0.131086 -0.1811322 -0.9746833 0.233038 0.061667
-65.8275 27.30294 50.0988 -0.5212768 -0.4292578 -0.7375692 0.233038 0.061667
-62.8911 27.30294 53.0352 -0.1889807 -0.2672598 -0.9449118 0.233038 0.061667
-62.8911 2.69703 53.0352 -0.3779642 0.5345234 -0.7559285 0.233038 0.061667
-61.8318 2.69703 54.0945 0.9448945 0.2671814 0.1891785 0.201760 0.061667
-5.7759 2.69703 -1.96158 0.3779731 0.5345221 0.7559249 0.201760 0.061667
-5.7759 27.30294 -1.96158 0.1889882 -0.2672555 0.9449117 0.201760 0.061667
-61.8318 27.30294 54.0945 0.7559447 -0.5344454 0.3780418 0.201760 0.061667
-62.8911 27.30294 53.0352 -0.1889807 -0.2672598 -0.9449118 0.201760 0.061667
-6.83511 27.30294 -3.02082 -0.7559257 -0.5345234 -0.3779695 0.201760 0.061667
-6.83511 2.69703 -3.02082 -0.9449112 0.2672597 -0.1889844 0.201760 0.061667
-62.8911 2.69703 53.0352 -0.3779642 0.5345234 -0.7559285 0.201760 0.061667
-60.3324 24.23637 52.5948 0.9449128 -0.2672589 0.1889775 0.169611 0.061667
-60.3324 5.76363 52.5948 0.852801 0.3015114 0.4264051 0.169611 0.061667
-61.3917 5.76363 51.5358 -0.171506 0.485065 -0.857495 0.169611 0.061667
-61.3917 24.23637 51.5358 -0.3779673 -0.5345202 -0.7559292 0.169611 0.061667
-7.27536 24.23637 -0.46206 0.1715063 -0.4850712 0.8574914 0.169611 0.061667
-8.33463 24.23637 -1.52133 -0.8528021 -0.3015097 -0.4264041 0.169611 0.061667
-8.33463 5.76363 -1.52133 -0.9449103 0.2672612 -0.1889866 0.169611 0.061667
-7.27536 5.76363 -0.46206 0.3779707 0.5345197 0.7559279 0.169611 0.061667
-7.27536 5.76363 -0.46206 0.3779706 0.5345197 0.7559279 0.235695 0.061667
-8.33463 5.76363 -1.52133 -0.9449103 0.2672612 -0.1889866 0.235695 0.061667
-61.3917 5.76363 51.5358 -0.171506 0.485065 -0.857495 0.235695 0.061667
-60.3324 5.76363 52.5948 0.852801 0.3015114 0.4264051 0.235695 0.061667
-9.61029 26.46378 2.89809 -0.2357146 0.666673 0.7070968 0.390868 0.061667
-8.58384 26.46378 1.87161 0.8660296 0.4082426 0.2886708 0.390868 0.061667
-8.58384 25.01211 1.87161 0.7071168 -0.6666605 -0.2356898 0.290983 0.061667
-9.61029 25.01211 2.89809 0.2886797 -0.4082541 0.8660212 0.290983 0.061667
-8.58384 25.01211 1.87161 0.7071168 -0.6666605 -0.2356898 0.323964 0.061667
-9.09642 25.01211 1.359 0.5000149 -0.7071066 -0.4999852 0.323964 0.061667
-9.09642 26.46378 1.359 0.5000162 0.7071064 -0.4999844 0.323964 0.061667
-8.58384 26.46378 1.87161 0.8660296 0.4082426 0.2886708 0.323964 0.061667
-10.1229 25.01211 2.38545 -0.5000135 -0.7071077 0.4999852 0.323964 0.061667
-9.61029 25.01211 2.89809 0.2886797 -0.4082541 0.8660212 0.323964 0.061667
-9.61029 26.46378 2.89809 -0.2357146 0.666673 0.7070968 0.323964 0.061667
-10.1229 26.46378 2.38545 -0.5000144 0.7071069 0.4999854 0.323964 0.061667
-57.1752 26.46378 50.463 -0.2356846 0.6666647 0.7071145 0.390868 0.061667
-56.1486 26.46378 49.4364 0.8660294 0.4082426 0.2886712 0.390868 0.061667
-56.1486 25.01211 49.4364 0.7071186 -0.6666591 -0.2356883 0.290983 0.061667
-57.1752 25.01211 50.463 0.288691 -0.4082463 0.8660211 0.290983 0.061667
-56.1486 25.01211 49.4364 0.7071186 -0.6666591 -0.2356883 0.323964 0.061667
-56.6613 25.01211 48.924 0.5000157 -0.7071067 -0.4999846 0.323964 0.061667
-56.6613 26.46378 48.924 0.5000162 0.7071064 -0.4999844 0.323964 0.061667
-56.1486 26.46378 49.4364 0.8660294 0.4082426 0.2886712 0.323964 0.061667
-57.6879 25.01211 49.9503 -0.4999852 -0.7071077 0.5000135 0.323964 0.061667
-57.1752 25.01211 50.463 0.288691 -0.4082463 0.8660211 0.323964 0.061667
-57.1752 26.46378 50.463 -0.2356846 0.6666647 0.7071145 0.323964 0.061667
-57.6879 26.46378 49.9503 -0.4999861 0.7071069 0.5000137 0.323964 0.061667
-9.61029 4.98789 2.89809 -0.2357146 0.666673 0.7070968 0.390868 0.061667
-8.58384 4.98789 1.87161 0.8660296 0.4082426 0.2886708 0.390868 0.061667
-8.58384 3.53619 1.87161 0.7071168 -0.6666605 -0.2356898 0.290983 0.061667
-9.61029 3.53619 2.89809 0.2886797 -0.4082541 0.8660212 0.290983 0.061667
-8.58384 3.53619 1.87161 0.7071168 -0.6666605 -0.2356898 0.323964 0.061667
-9.09642 3.53619 1.359 0.5000144 -0.7071069 -0.4999854 0.323964 0.061667
-9.09642 4.98789 1.359 0.5000135 0.7071077 -0.4999852 0.323964 0.061667
-8.58384 4.98789 1.87161 0.8660296 0.4082426 0.2886708 0.323964 0.061667
-10.1229 3.53619 2.38545 -0.5000135 -0.7071077 0.4999852 0.323964 0.061667
-9.61029 3.53619 2.89809 0.2886797 -0.4082541 0.8660212 0.323964 0.061667
-9.61029 4.98789 2.89809 -0.2357146 0.666673 0.7070968 0.323964 0.061667
-10.1229 4.98789 2.38545 -0.5000144 0.7071069 0.4999854 0.323964 0.061667
-57.1752 4.98789 50.463 -0.2356846 0.6666647 0.7071145 0.390868 0.061667
-56.1486 4.98789 49.4364 0.8660294 0.4082426 0.2886712 0.390868 0.061667
-56.1486 3.53619 49.4364 0.7071186 -0.6666591 -0.2356883 0.290983 0.061667
-57.1752 3.53619 50.463 0.288691 -0.4082463 0.8660211 0.290983 0.061667
-56.1486 3.53619 49.4364 0.7071186 -0.6666591 -0.2356883 0.323964 0.061667
-56.6613 3.53619 48.924 0.5000157 -0.7071067 -0.4999846 0.323964 0.061667
-56.6613 4.98789 48.924 0.5000162 0.7071064 -0.4999844 0.323964 0.061667
-56.1486 4.98789 49.4364 0.8660294 0.4082426 0.2886712 0.323964 0.061667
-57.6879 3.53619 49.9503 -0.4999852 -0.7071077 0.5000135 0.323964 0.061667
-57.1752 3.53619 50.463 0.288691 -0.4082463 0.8660211 0.323964 0.061667
-57.1752 4.98789 50.463 -0.2356846 0.6666647 0.7071145 0.323964 0.061667
-57.6879 4.98789 49.9503 -0.4999861 0.7071069 0.5000137 0.323964 0.061667
3 2 3 5 
3 2 5 4 
3 6 7 1 
3 6 1 0 
3 64 65 66 
3 64 66 67 
3 68 69 70 
3 68 70 71 
3 72 73 9 
3 72 9 8 
3 73 74 10 
3 73 10 9 
3 74 75 11 
3 74 11 10 
3 75 72 8 
3 75 8 11 
3 76 77 13 
3 76 13 12 
3 77 78 14 
3 77 14 13 
3 78 79 15 
3 78 15 14 
3 79 76 12 
3 79 12 15 
3 80 81 17 
3 80 17 16 
3 82 83 18 
3 82 18 84 
3 10 11 19 
3 10 19 85 
3 86 87 88 
3 86 88 89 
3 12 13 21 
3 12 21 20 
3 90 91 22 
3 90 22 92 
3 93 94 23 
3 93 23 95 
3 96 97 98 
3 96 98 99 
3 100 101 25 
3 100 25 24 
3 101 102 26 
3 101 26 25 
3 102 103 27 
3 102 27 26 
3 103 100 24 
3 103 24 27 
3 104 105 29 
3 104 29 28 
3 105 106 30 
3 105 30 29 
3 106 107 31 
3 106 31 30 
3 107 104 28 
3 107 28 31 
3 26 27 28 
3 26 28 29 
3 108 109 110 
3 108 110 111 
3 112 113 114 
3 112 114 115 
3 116 117 118 
3 116 118 119 
3 32 33 35 
3 32 35 34 
3 120 121 37 
3 120 37 36 
3 38 39 122 
3 38 122 123 
3 124 125 126 
3 124 126 127 
3 128 129 130 
3 128 130 131 
3 40 41 43 
3 40 43 42 
3 132 133 45 
3 132 45 44 
3 46 47 134 
3 46 134 135 
3 136 137 138 
3 136 138 139 
3 140 141 142 
3 140 142 143 
3 48 49 51 
3 48 51 50 
3 144 145 53 
3 144 53 52 
3 54 55 146 
3 54 146 147 
3 148 149 150 
3 148 150 151 
3 152 153 154 
3 152 154 155 
3 56 57 59 
3 56 59 58 
3 156 157 61 
3 156 61 60 
3 62 63 158 
3 62 158 159 
3 160 161 162 
3 160 162 163 
3 164 165 166 
3 164 166 167 
