ply
format ascii 1.0
comment VCGLIB generated
comment TextureFile ../textures/SpaceInteriors_Texture.png
element vertex 216
property float x
property float y
property float z
property float nx
property float ny
property float nz
property float texture_u
property float texture_v
element face 160
property list uchar int vertex_indices
end_header
-15 0 18.44691 -0.6666667 -0.3333333 0.6666667 0.200664 0.062866
15 0 18.44691 0.6666667 -0.6666667 0.3333333 0.200664 0.062866
-15 26.38551 18.44691 -0.5341268 0.8011742 0.2698676 0.169732 0.062866
15 26.38551 18.44691 0.2664648 0.7993649 0.5385279 0.169732 0.062866
-15 25.86981 -13.94622 -0.3956307 -0.04671325 -0.917221 0.169732 0.062866
15 25.86981 -13.94622 0.6018126 -0.04702198 -0.7972519 0.169732 0.062866
-15 0 -16.79307 -0.6834869 -0.646107 -0.339693 0.200664 0.062866
15 0 -16.79307 0.6834873 -0.2669818 -0.6793864 0.200664 0.062866
-15 26.61702 -7.46883 -0.5552925 0.6189068 0.555522 0.169732 0.062866
15 26.61702 -7.46883 0.546653 0.4882893 0.680253 0.169732 0.062866
-15 70.6002 -12.54255 -0.3481544 0.4456049 0.8247575 0.169732 0.062866
15 70.6002 -12.54255 0.3333334 0.7386717 0.585878 0.169732 0.062866
-15 69.8529 -19.01997 -0.3015085 0.1958687 -0.9331281 0.169732 0.062866
15 69.8529 -19.01997 0.3123432 0.04776378 -0.9487678 0.169732 0.062866
-12.0441 29.57841 -7.81044 0.3015141 0.4031807 0.8640223 0.200664 0.062866
12.04407 29.57841 -7.81044 -0.2672641 0.6228821 0.7352468 0.200664 0.062866
12.04407 67.6386 -12.20094 -0.4364379 -0.1167537 0.892127 0.200664 0.062866
-12.0441 67.6386 -12.20094 0.5345227 -0.1736207 0.8271284 0.200664 0.062866
-12.0441 66.8916 -18.67836 0.267266 -0.6228803 -0.7352475 0.200664 0.062866
12.04407 66.8916 -18.67836 -0.3333361 -0.7386722 -0.5858757 0.200664 0.062866
12.04407 28.8312 -14.28783 -0.5345247 0.1736192 -0.8271274 0.200664 0.062866
-12.0441 28.8312 -14.28783 0.4850728 0.398495 -0.7783997 0.200664 0.062866
-12.0441 39.0936 -8.90808 0.4364371 -0.116752 0.8921276 0.200664 0.062866
12.04407 39.0936 -8.90808 -0.4850728 -0.398495 0.7783997 0.200664 0.062866
-12.0441 58.1235 -11.10333 0.3015141 0.4031807 0.8640223 0.200664 0.062866
12.04407 58.1235 -11.10333 -0.2182202 0.5335888 0.8171064 0.200664 0.062866
12.04407 57.3765 -17.58069 -0.4364371 0.116752 -0.8921276 0.200664 0.062866
-12.0441 57.3765 -17.58069 0.4850751 0.3984925 -0.7783995 0.200664 0.062866
12.04407 38.3463 -15.38544 -0.3015141 -0.4031807 -0.8640223 0.200664 0.062866
-12.0441 38.3463 -15.38544 0.2182223 -0.5335886 -0.8171061 0.200664 0.062866
-15 7.76094 -15.93903 -0.5547 0.09101406 -0.8270577 0.200664 0.062866
-15 7.91565 18.44691 -0.7071068 0 0.7071068 0.200664 0.062866
15 7.91565 18.44691 0.7071068 0 0.7071068 0.200664 0.062866
15 7.76094 -15.93903 0.5546999 0.09101627 -0.8270575 0.200664 0.062866
15 7.89246 5.91102 0.9108573 -0.3760224 -0.1701356 0.135807 0.062866
15 0 12.68619 0.3408902 -0.7849712 -0.5173144 0.169732 0.062866
-15 0 12.68619 -0.3408893 -0.9038202 -0.2586572 0.135807 0.062866
-15 7.89246 5.91102 -0.7409956 -0.6117994 -0.2768156 0.135807 0.062866
-15 7.784161 -3.40311 -0.9077684 -0.3857788 0.1647153 0.135807 0.062866
-15 0 -11.03238 -0.3371028 -0.8090233 0.4815009 0.169732 0.062866
15 0 -11.03238 0.3371021 -0.9101656 0.2407502 0.135807 0.062866
15 7.784161 -3.40311 0.7343987 -0.6242022 0.2665151 0.135807 0.062866
-11.00181 26.38551 14.57121 3.067453e-08 0.9999567 0.00929912 0.207137 0.062866
11.00178 26.38551 14.57121 -2.006321e-08 0.9999831 0.005812005 0.207137 0.062866
11.00178 26.61702 -3.59319 -3.210095e-08 0.9999567 0.00929912 0.207137 0.062866
-11.00181 26.61702 -3.59319 1.917167e-08 0.9999831 0.005812005 0.207137 0.062866
-15 13.45662 18.44691 -0.3013151 -0.9039181 0.3035478 0.200664 0.062866
15 13.45662 18.44691 0.2667066 -0.8000716 0.5373574 0.200664 0.062866
-15 13.19361 -15.34116 -0.761003 -0.5291125 -0.3753857 0.200664 0.062866
15 13.19361 -15.34116 0.7947925 -0.5743501 -0.1960278 0.200664 0.062866
15 17.13354 18.44691 0.688395 0.6883835 0.228562 0.169732 0.062866
-15 17.13354 18.44691 -0.267584 0.8026744 0.5330222 0.169732 0.062866
15 16.99647 -14.92269 0.2553119 0.8217112 -0.5095159 0.169732 0.062866
-15 16.99647 -14.92269 -0.6765306 0.7011876 -0.2250386 0.169732 0.062866
-16.29372 13.45662 20.03685 -0.2667066 -0.8000716 0.5373574 0.236468 0.061595
16.29372 13.45662 20.03685 0.5342453 -0.8013518 0.2691047 0.236468 0.061595
16.29372 17.13354 20.03685 0.267584 0.8026744 0.5330222 0.236468 0.061595
-16.29372 17.13354 20.03685 -0.5346808 0.8020024 0.2662866 0.236468 0.061595
16.29372 16.99647 -16.48368 0.5212947 0.812862 -0.2598216 0.236468 0.061595
-16.29372 16.99647 -16.48368 -0.2543868 0.8234752 -0.5071253 0.236468 0.061595
16.29372 13.19361 -16.9383 0.2826674 -0.7808489 -0.5571123 0.236468 0.061595
-16.29372 13.19361 -16.9383 -0.5489715 -0.7908596 -0.2705022 0.236468 0.061595
-6.08493 70.6002 -12.54255 -0.8017849 0.3267541 0.5003726 0.200664 0.062866
-6.08493 67.6386 -12.20094 -0.8017838 -0.5003746 0.3267536 0.200664 0.062866
-6.08493 66.8916 -18.67836 -0.8017838 -0.3267536 -0.5003746 0.138085 0.062866
-6.08493 69.8529 -19.01997 -0.8017831 0.5003741 -0.326756 0.200664 0.062866
6.08493 69.8529 -19.01997 0.8017831 0.5003741 -0.326756 0.200664 0.062866
6.08493 66.8916 -18.67836 0.8017838 -0.3267536 -0.5003746 0.200664 0.062866
6.08493 67.6386 -12.20094 0.8017838 -0.5003746 0.3267536 0.138085 0.062866
6.08493 70.6002 -12.54255 0.8017838 0.3267536 0.5003746 0.200664 0.062866
-6.08493 70.6593 -20.03682 -0.8017835 0.204248 -0.561628 0.229601 0.062866
6.08493 70.6593 -20.03682 0.8017838 0.5003746 -0.3267536 0.229601 0.062866
-6.08493 71.6169 -11.73603 -0.8017837 0.5616282 0.2042467 0.229601 0.062866
6.08493 71.6169 -11.73603 0.8017838 0.3267536 0.5003746 0.229601 0.062866
-6.08493 66.8322 -11.18409 -0.8017836 -0.204248 0.561628 0.200664 0.062866
6.08493 66.8322 -11.18409 0.8017838 -0.5003746 0.3267536 0.200664 0.062866
-6.08493 65.8746 -19.48488 -0.8017837 -0.5616281 -0.2042467 0.200664 0.062866
6.08493 65.8746 -19.48488 0.8017838 -0.3267536 -0.5003746 0.200664 0.062866
-15 26.61702 -7.46883 -0.5552925 0.6189068 0.555522 0.200664 0.062866
15 26.61702 -7.46883 0.546653 0.4882893 0.680253 0.200664 0.062866
15 70.6002 -12.54255 0.3333334 0.7386717 0.585878 0.200664 0.062866
6.08493 71.6169 -11.73603 0.8017838 0.3267536 0.5003746 0.200664 0.062866
-6.08493 71.6169 -11.73603 -0.8017837 0.5616281 0.2042467 0.200664 0.062866
-15 70.6002 -12.54255 -0.3481544 0.4456049 0.8247575 0.200664 0.062866
-6.08493 70.6593 -20.03682 -0.8017836 0.204248 -0.561628 0.200664 0.062866
6.08493 70.6593 -20.03682 0.8017838 0.5003746 -0.3267536 0.200664 0.062866
15 69.8529 -19.01997 0.3123432 0.04776378 -0.9487678 0.200664 0.062866
15 25.86981 -13.94622 0.6018126 -0.04702198 -0.7972519 0.200664 0.062866
-15 25.86981 -13.94622 -0.3956307 -0.04671325 -0.917221 0.200664 0.062866
-15 69.8529 -19.01997 -0.3015085 0.1958687 -0.9331281 0.200664 0.062866
6.08493 66.8322 -11.18409 0.8017838 -0.5003746 0.3267536 0.138085 0.062866
-6.08493 66.8322 -11.18409 -0.8017835 -0.204248 0.561628 0.138085 0.062866
-6.08493 65.8746 -19.48488 -0.8017837 -0.5616282 -0.2042467 0.138085 0.062866
6.08493 65.8746 -19.48488 0.8017838 -0.3267536 -0.5003746 0.138085 0.062866
-12.0441 67.6386 -12.20094 0.5345227 -0.1736207 0.8271284 0.168385 0.062866
-12.0441 58.1235 -11.10333 0.3015141 0.4031807 0.8640223 0.168385 0.062866
-12.0441 57.3765 -17.58069 0.4850751 0.3984925 -0.7783995 0.168385 0.062866
-12.0441 66.8916 -18.67836 0.267266 -0.6228803 -0.7352475 0.168385 0.062866
12.04407 67.6386 -12.20094 -0.4364379 -0.1167537 0.892127 0.168385 0.062866
12.04407 66.8916 -18.67836 -0.3333361 -0.7386722 -0.5858757 0.168385 0.062866
12.04407 57.3765 -17.58069 -0.4364371 0.116752 -0.8921276 0.168385 0.062866
12.04407 58.1235 -11.10333 -0.2182202 0.5335888 0.8171064 0.168385 0.062866
12.04407 58.1235 -11.10333 -0.2182202 0.5335888 0.8171064 0.232072 0.062866
12.04407 57.3765 -17.58069 -0.4364372 0.116752 -0.8921276 0.232072 0.062866
-12.0441 57.3765 -17.58069 0.4850751 0.3984925 -0.7783995 0.232072 0.062866
-12.0441 58.1235 -11.10333 0.3015141 0.4031807 0.8640223 0.232072 0.062866
12.04407 39.0936 -8.90808 -0.4850728 -0.398495 0.7783997 0.139690 0.062866
-12.0441 39.0936 -8.90808 0.4364372 -0.116752 0.8921276 0.139690 0.062866
-12.0441 38.3463 -15.38544 0.2182223 -0.5335886 -0.8171061 0.139690 0.062866
12.04407 38.3463 -15.38544 -0.3015141 -0.4031807 -0.8640223 0.139690 0.062866
-12.0441 39.0936 -8.90808 0.4364371 -0.116752 0.8921276 0.168385 0.062866
-12.0441 29.57841 -7.81044 0.3015141 0.4031807 0.8640223 0.168385 0.062866
-12.0441 28.8312 -14.28783 0.4850728 0.398495 -0.7783997 0.168385 0.062866
-12.0441 38.3463 -15.38544 0.2182223 -0.5335886 -0.8171061 0.168385 0.062866
12.04407 39.0936 -8.90808 -0.4850728 -0.398495 0.7783997 0.168385 0.062866
12.04407 38.3463 -15.38544 -0.3015141 -0.4031807 -0.8640223 0.168385 0.062866
12.04407 28.8312 -14.28783 -0.5345247 0.1736192 -0.8271274 0.168385 0.062866
12.04407 29.57841 -7.81044 -0.2672641 0.6228821 0.7352468 0.168385 0.062866
12.04407 29.57841 -7.81044 -0.2672641 0.6228821 0.7352468 0.232072 0.062866
12.04407 28.8312 -14.28783 -0.5345247 0.1736192 -0.8271274 0.232072 0.062866
-12.0441 28.8312 -14.28783 0.4850728 0.398495 -0.7783997 0.232072 0.062866
-12.0441 29.57841 -7.81044 0.3015141 0.4031807 0.8640223 0.232072 0.062866
15 0 18.44691 0.6666667 -0.6666667 0.3333333 0.169732 0.062866
15 7.89246 5.91102 0.9108573 -0.3760224 -0.1701356 0.169732 0.062866
15 7.91565 18.44691 0.7071068 0 0.7071068 0.169732 0.062866
15 0 12.68619 0.3408902 -0.7849712 -0.5173144 0.135807 0.062866
15 0 18.44691 0.6666667 -0.6666667 0.3333333 0.135807 0.062866
-15 0 18.44691 -0.6666667 -0.3333333 0.6666667 0.135807 0.062866
-15 7.89246 5.91102 -0.7409956 -0.6117994 -0.2768156 0.169732 0.062866
-15 0 12.68619 -0.3408893 -0.9038202 -0.2586572 0.169732 0.062866
-15 0 18.44691 -0.6666667 -0.3333333 0.6666667 0.169732 0.062866
-15 7.91565 18.44691 -0.7071068 0 0.7071068 0.169732 0.062866
-15 0 -16.79307 -0.6834869 -0.646107 -0.339693 0.169732 0.062866
-15 7.784161 -3.40311 -0.9077684 -0.3857788 0.1647153 0.169732 0.062866
-15 7.76094 -15.93903 -0.5547 0.09101406 -0.8270577 0.169732 0.062866
-15 0 -16.79307 -0.6834869 -0.646107 -0.339693 0.135807 0.062866
15 0 -16.79307 0.6834873 -0.2669818 -0.6793864 0.135807 0.062866
-15 0 -11.03238 -0.3371029 -0.8090233 0.4815009 0.135807 0.062866
15 7.784161 -3.40311 0.7343987 -0.6242022 0.2665151 0.169732 0.062866
15 0 -11.03238 0.3371021 -0.9101656 0.2407502 0.169732 0.062866
15 0 -16.79307 0.6834873 -0.2669818 -0.6793864 0.169732 0.062866
15 7.76094 -15.93903 0.5546999 0.09101627 -0.8270575 0.169732 0.062866
-15 26.38551 18.44691 -0.5341268 0.8011742 0.2698676 0.229601 0.062866
15 26.38551 18.44691 0.2664648 0.7993649 0.5385279 0.229601 0.062866
11.00178 26.38551 14.57121 -2.006321e-08 0.9999831 0.005812005 0.229601 0.062866
-11.00181 26.38551 14.57121 3.067453e-08 0.9999567 0.00929912 0.229601 0.062866
15 26.61702 -7.46883 0.546653 0.4882893 0.680253 0.229601 0.062866
11.00178 26.61702 -3.59319 -3.210095e-08 0.9999567 0.00929912 0.229601 0.062866
-15 26.61702 -7.46883 -0.5552925 0.6189068 0.555522 0.229601 0.062866
-11.00181 26.61702 -3.59319 1.917167e-08 0.9999831 0.005812005 0.229601 0.062866
15 16.99647 -14.92269 0.2553119 0.8217112 -0.5095159 0.200664 0.062866
-15 16.99647 -14.92269 -0.6765306 0.7011876 -0.2250386 0.200664 0.062866
-15 13.19361 -15.34116 -0.761003 -0.5291125 -0.3753857 0.169732 0.062866
-15 13.45662 18.44691 -0.3013151 -0.9039181 0.3035478 0.169732 0.062866
15 13.19361 -15.34116 0.7947925 -0.5743501 -0.1960278 0.169732 0.062866
15 13.45662 18.44691 0.2667066 -0.8000717 0.5373575 0.169732 0.062866
-15 17.13354 18.44691 -0.267584 0.8026744 0.5330222 0.200664 0.062866
15 17.13354 18.44691 0.6883949 0.6883835 0.228562 0.200664 0.062866
15 26.38551 18.44691 0.2664648 0.7993649 0.5385279 0.200664 0.062866
-15 26.38551 18.44691 -0.5341268 0.8011742 0.2698676 0.200664 0.062866
16.29372 13.45662 20.03685 0.5342453 -0.8013518 0.2691047 0.205536 0.061595
16.29372 13.19361 -16.9383 0.2826675 -0.7808489 -0.5571124 0.205536 0.061595
16.29372 16.99647 -16.48368 0.5212947 0.812862 -0.2598216 0.205536 0.061595
16.29372 17.13354 20.03685 0.267584 0.8026744 0.5330222 0.205536 0.061595
-16.29372 13.19361 -16.9383 -0.5489715 -0.7908596 -0.2705022 0.205536 0.061595
-16.29372 13.45662 20.03685 -0.2667066 -0.8000717 0.5373575 0.205536 0.061595
-16.29372 17.13354 20.03685 -0.5346808 0.8020024 0.2662866 0.205536 0.061595
-16.29372 16.99647 -16.48368 -0.2543868 0.8234752 -0.5071253 0.205536 0.061595
-15 13.45662 18.44691 -0.3013151 -0.9039181 0.3035478 0.168005 0.061477
15 13.45662 18.44691 0.2667066 -0.8000715 0.5373575 0.168005 0.061477
16.29372 13.45662 20.03685 0.5342453 -0.8013518 0.2691047 0.168005 0.061477
-16.29372 13.45662 20.03685 -0.2667066 -0.8000715 0.5373575 0.168005 0.061477
15 17.13354 18.44691 0.688395 0.6883835 0.228562 0.270925 0.060901
-15 17.13354 18.44691 -0.267584 0.8026744 0.5330222 0.270925 0.060901
-16.29372 17.13354 20.03685 -0.5346808 0.8020024 0.2662866 0.270925 0.060901
16.29372 17.13354 20.03685 0.267584 0.8026744 0.5330222 0.270925 0.060901
-15 16.99647 -14.92269 -0.6765306 0.7011876 -0.2250386 0.270925 0.060901
15 16.99647 -14.92269 0.2553119 0.8217112 -0.5095159 0.270925 0.060901
16.29372 16.99647 -16.48368 0.5212947 0.812862 -0.2598216 0.270925 0.060901
-16.29372 16.99647 -16.48368 -0.2543868 0.8234752 -0.5071253 0.270925 0.060901
15 13.19361 -15.34116 0.7947925 -0.5743501 -0.1960278 0.168005 0.061477
-15 13.19361 -15.34116 -0.761003 -0.5291125 -0.3753857 0.168005 0.061477
-16.29372 13.19361 -16.9383 -0.5489715 -0.7908596 -0.2705022 0.168005 0.061477
16.29372 13.19361 -16.9383 0.2826674 -0.7808489 -0.5571123 0.168005 0.061477
-12.0441 66.8916 -18.67836 0.267266 -0.6228803 -0.7352475 0.138085 0.062866
-6.08493 67.6386 -12.20094 -0.8017838 -0.5003746 0.3267536 0.138085 0.062866
-12.0441 67.6386 -12.20094 0.5345227 -0.1736207 0.8271284 0.138085 0.062866
-6.08493 66.8916 -18.67836 -0.8017838 -0.3267536 -0.5003746 0.200664 0.062866
-15 70.6002 -12.54255 -0.3481544 0.4456049 0.8247575 0.229601 0.062866
-6.08493 70.6002 -12.54255 -0.8017849 0.3267541 0.5003726 0.229601 0.062866
-6.08493 69.8529 -19.01997 -0.8017831 0.5003741 -0.326756 0.229601 0.062866
-15 69.8529 -19.01997 -0.3015085 0.1958687 -0.9331281 0.229601 0.062866
6.08493 66.8916 -18.67836 0.8017838 -0.3267536 -0.5003746 0.138085 0.062866
12.04407 66.8916 -18.67836 -0.3333361 -0.7386722 -0.5858757 0.138085 0.062866
12.04407 67.6386 -12.20094 -0.4364379 -0.1167537 0.8921269 0.138085 0.062866
6.08493 67.6386 -12.20094 0.8017838 -0.5003746 0.3267536 0.200664 0.062866
6.08493 69.8529 -19.01997 0.8017831 0.5003741 -0.326756 0.229601 0.062866
6.08493 70.6002 -12.54255 0.8017838 0.3267536 0.5003746 0.229601 0.062866
15 70.6002 -12.54255 0.3333334 0.7386717 0.585878 0.229601 0.062866
15 69.8529 -19.01997 0.3123432 0.04776378 -0.9487678 0.229601 0.062866
-6.08493 69.8529 -19.01997 -0.8017831 0.5003741 -0.326756 0.168092 0.065136
-6.08493 70.6002 -12.54255 -0.8017849 0.3267541 0.5003726 0.168092 0.065136
-6.08493 71.6169 -11.73603 -0.8017837 0.5616282 0.2042467 0.168092 0.065136
-6.08493 70.6593 -20.03682 -0.8017836 0.204248 -0.561628 0.168092 0.065136
6.08493 70.6002 -12.54255 0.8017838 0.3267536 0.5003746 0.168092 0.065136
6.08493 69.8529 -19.01997 0.8017831 0.5003741 -0.326756 0.168092 0.065136
6.08493 70.6593 -20.03682 0.8017838 0.5003746 -0.3267536 0.168092 0.065136
6.08493 71.6169 -11.73603 0.8017838 0.3267536 0.5003746 0.168092 0.065136
-6.08493 67.6386 -12.20094 -0.8017838 -0.5003746 0.3267536 0.168092 0.065136
-6.08493 66.8322 -11.18409 -0.8017836 -0.204248 0.561628 0.168092 0.065136
6.08493 67.6386 -12.20094 0.8017838 -0.5003746 0.3267536 0.168092 0.065136
6.08493 66.8322 -11.18409 0.8017838 -0.5003746 0.3267536 0.168092 0.065136
-6.08493 66.8916 -18.67836 -0.8017838 -0.3267536 -0.5003746 0.168092 0.065136
-6.08493 65.8746 -19.48488 -0.8017837 -0.5616282 -0.2042467 0.168092 0.065136
6.08493 66.8916 -18.67836 0.8017838 -0.3267536 -0.5003746 0.168092 0.065136
6.08493 65.8746 -19.48488 0.8017838 -0.3267536 -0.5003746 0.168092 0.065136
3 54 55 56 
3 54 56 57 
3 48 49 33 
3 48 33 30 
3 37 38 41 
3 37 41 34 
3 50 52 5 
3 50 5 9 
3 50 9 3 
3 53 51 2 
3 53 2 8 
3 53 8 4 
3 42 43 44 
3 42 44 45 
3 71 70 72 
3 71 72 73 
3 9 5 13 
3 9 13 11 
3 4 8 10 
3 4 10 12 
3 78 79 15 
3 78 15 14 
3 79 80 16 
3 79 16 25 
3 79 25 23 
3 79 23 15 
3 81 82 74 
3 81 74 75 
3 83 78 14 
3 83 14 22 
3 83 22 24 
3 83 24 17 
3 77 76 84 
3 77 84 85 
3 86 87 20 
3 86 20 28 
3 86 28 26 
3 86 26 19 
3 87 88 21 
3 87 21 20 
3 88 89 18 
3 88 18 27 
3 88 27 29 
3 88 29 21 
3 25 24 22 
3 25 22 23 
3 29 27 26 
3 29 26 28 
3 90 91 92 
3 90 92 93 
3 94 95 96 
3 94 96 97 
3 98 99 100 
3 98 100 101 
3 102 103 104 
3 102 104 105 
3 106 107 108 
3 106 108 109 
3 110 111 112 
3 110 112 113 
3 114 115 116 
3 114 116 117 
3 118 119 120 
3 118 120 121 
3 0 1 32 
3 0 32 31 
3 30 33 7 
3 30 7 6 
3 122 35 123 
3 122 123 124 
3 36 125 126 
3 36 126 127 
3 128 129 130 
3 128 130 131 
3 132 39 133 
3 132 133 134 
3 135 136 40 
3 135 40 137 
3 138 139 140 
3 138 140 141 
3 137 40 41 
3 137 41 38 
3 125 36 37 
3 125 37 34 
3 142 143 144 
3 142 144 145 
3 143 146 147 
3 143 147 144 
3 146 148 149 
3 146 149 147 
3 148 142 145 
3 148 145 149 
3 31 32 47 
3 31 47 46 
3 88 87 150 
3 88 150 151 
3 152 134 133 
3 152 133 128 
3 152 128 131 
3 152 131 153 
3 154 155 124 
3 154 124 123 
3 154 123 138 
3 154 138 141 
3 156 157 158 
3 156 158 159 
3 59 58 60 
3 59 60 61 
3 160 161 162 
3 160 162 163 
3 164 165 166 
3 164 166 167 
3 168 169 170 
3 168 170 171 
3 172 173 174 
3 172 174 175 
3 176 177 178 
3 176 178 179 
3 180 181 182 
3 180 182 183 
3 169 180 183 
3 169 183 170 
3 177 172 175 
3 177 175 178 
3 181 168 171 
3 181 171 182 
3 173 176 179 
3 173 179 174 
3 17 63 62 
3 17 62 83 
3 184 64 185 
3 184 185 186 
3 89 65 187 
3 89 187 18 
3 188 189 190 
3 188 190 191 
3 67 66 86 
3 67 86 19 
3 68 192 193 
3 68 193 194 
3 69 195 16 
3 69 16 80 
3 196 197 198 
3 196 198 199 
3 200 201 202 
3 200 202 203 
3 204 205 206 
3 204 206 207 
3 201 208 209 
3 201 209 202 
3 210 204 207 
3 210 207 211 
3 212 200 203 
3 212 203 213 
3 205 214 215 
3 205 215 206 
3 208 212 213 
3 208 213 209 
3 214 210 211 
3 214 211 215 
